# xmcd CD database file
#
# Track frame offsets:
#	150
#	1870
#	14418
#	29267
#	45256
#	58611
#	72785
#	85106
#	100992
#	117863
#	130084
#	147849
#	169248
#	185302
#	201186
#	216574
#	231985
#
# Disc length: 3275 seconds
#
# Revision: 0
# Processed by: cddbd v1.5.2PL0 Copyright (c) Steve Scherf et al.
# Submitted via: CDex 1.70beta2
#
DISCID=e50cc911
DTITLE=The Bosshoss - Rodeo Radio
DYEAR=2006
DGENRE=Country
TTITLE0=Intro
TTITLE1=Rodeo Radio
TTITLE2=Ring Ring Ring
TTITLE3=My Favourite Game
TTITLE4=I Say A Little Prayer
TTITLE5=I´m On A High
TTITLE6=Hell Yeah
TTITLE7=Hot Stuff
TTITLE8=Rodeo Queen
TTITLE9=It´s Not Unusual
TTITLE10=Shake A Leg
TTITLE11=Mary Me
TTITLE12=Jesus Built My Hotrod
TTITLE13=Upside Down
TTITLE14=Ca Plane Pour Moi
TTITLE15=You´ll Never Walk Alone
TTITLE16=Yodle Blues
EXTD=YEAR: 2006
EXTT0=
EXTT1=
EXTT2=
EXTT3=
EXTT4=
EXTT5=
EXTT6=
EXTT7=
EXTT8=
EXTT9=
EXTT10=
EXTT11=
EXTT12=
EXTT13=
EXTT14=
EXTT15=
EXTT16=
PLAYORDER=
